<svg width="30" height="30" viewBox="0 0 30 30" fill="none" xmlns="http://www.w3.org/2000/svg">
<path d="M14.7868 29.7608C12.0625 29.7608 9.33577 29.824 6.61393 29.7426C4.12989 29.6673 2.21533 28.5051 1.06782 26.1636C0.595884 25.2017 0.433696 24.1585 0.403209 23.0958C0.362967 21.732 0.343456 20.3657 0.347114 19.0007C0.359309 14.9686 0.367845 10.9378 0.417843 6.90582C0.441013 5.1072 0.914164 3.4531 2.17753 2.11719C3.29333 0.936732 4.66157 0.312497 6.23712 0.20441C7.40658 0.124255 8.58336 0.110896 9.75648 0.108467C14.0063 0.103609 18.2561 0.0926794 22.506 0.131542C24.4571 0.149759 26.2217 0.7242 27.5716 2.29693C28.4643 3.33651 28.9886 4.55098 29.0801 5.92089C29.1752 7.34424 29.1923 8.7761 29.1947 10.2043C29.202 14.5703 29.2289 18.9375 29.1618 23.3023C29.1167 26.2012 27.5253 28.4565 25.09 29.3455C23.9876 29.7475 22.8377 29.7863 21.6865 29.8167C21.5865 29.8191 21.4865 29.8191 21.3865 29.8191C19.1866 29.8191 16.9867 29.8191 14.7868 29.8191C14.7868 29.7997 14.7868 29.7802 14.7868 29.7608ZM21.5267 12.6648H21.5426C21.5426 10.333 21.5426 8.00127 21.5426 5.6695C21.5426 5.56627 21.545 5.46304 21.5426 5.35981C21.5206 4.76594 21.2158 4.49025 20.6512 4.55462C20.5524 4.56555 20.4524 4.58255 20.3548 4.60198C17.4159 5.20922 14.477 5.81523 11.5381 6.42489C10.7711 6.58399 10.5126 6.92039 10.5138 7.74016C10.515 10.1873 10.5199 12.6357 10.5223 15.0828C10.5235 16.2548 10.526 17.4267 10.526 18.5999C10.526 19.4148 10.3723 19.6055 9.58942 19.7731C9.28333 19.8386 8.96749 19.8702 8.67238 19.9674C8.11631 20.1508 7.53219 20.2965 7.03221 20.5904C6.20541 21.075 5.85664 22.0988 6.07249 23.0728C6.27126 23.9739 7.02245 24.7256 7.90412 24.8386C8.76872 24.9503 9.60405 24.7973 10.3674 24.354C11.0089 23.9812 11.4235 23.4031 11.571 22.6623C11.6601 22.2117 11.6991 21.7441 11.7003 21.2826C11.7137 18.1651 11.7113 15.0476 11.7162 11.9301C11.7162 11.3277 11.7954 11.216 12.3296 11.1042C14.7526 10.599 17.1757 10.0974 19.6 9.60193C20.2195 9.47563 20.339 9.58371 20.3402 10.2298C20.3439 12.2519 20.3451 14.2752 20.3475 16.2973C20.3475 17.4935 20.3 17.5214 19.1537 17.7886C18.4281 17.9574 17.683 18.1311 17.0159 18.4566C16.1965 18.8561 15.8062 19.637 15.8416 20.5795C15.8757 21.4903 16.3269 22.168 17.1086 22.5809C18.2781 23.1991 20.3122 22.6586 21.017 21.5182C21.245 21.1503 21.3645 20.6985 21.4755 20.2698C21.5475 19.9905 21.5267 19.682 21.5267 19.3857C21.5304 17.1438 21.5292 14.9031 21.5292 12.6612L21.5267 12.6648Z" fill="#FFF0DF"/>
</svg>
