<svg width="177" height="177" viewBox="0 0 177 177" fill="none" xmlns="http://www.w3.org/2000/svg">
<rect y="0.652588" width="176.194" height="175.39" rx="37.8134" fill="#AC5C39"/>
<path d="M53.6057 60.2487C51.7016 60.2487 49.945 59.9001 48.3359 59.2028C46.7536 58.4787 45.453 57.4596 44.4339 56.1456L48.0543 51.801C48.832 52.8201 49.65 53.5978 50.5082 54.1342C51.3663 54.6437 52.2916 54.8985 53.2838 54.8985C55.9388 54.8985 57.2663 53.3431 57.2663 50.2322V36.8366H47.3705V31.6071H63.7429V49.8701C63.7429 53.3565 62.8847 55.9578 61.1683 57.6742C59.452 59.3905 56.9311 60.2487 53.6057 60.2487ZM82.6904 60.2487C78.6945 60.2487 75.5702 59.1358 73.3175 56.9099C71.0648 54.684 69.9385 51.506 69.9385 47.3761V31.6071H76.4552V47.1347C76.4552 49.8165 77.005 51.7474 78.1045 52.9274C79.2041 54.1074 80.7461 54.6974 82.7306 54.6974C84.7152 54.6974 86.2572 54.1074 87.3568 52.9274C88.4563 51.7474 89.0061 49.8165 89.0061 47.1347V31.6071H95.4424V47.3761C95.4424 51.506 94.316 54.684 92.0633 56.9099C89.8106 59.1358 86.6863 60.2487 82.6904 60.2487ZM101.882 59.766V31.6071H107.273L123.886 51.8815H121.272V31.6071H127.708V59.766H122.358L105.704 39.4916H108.318V59.766H101.882ZM50.7057 137.766V131.008L68.0837 114.595C69.4568 113.351 70.4652 112.235 71.1088 111.248C71.7524 110.261 72.1815 109.36 72.3961 108.545C72.6535 107.73 72.7823 106.979 72.7823 106.292C72.7823 104.49 72.1601 103.117 70.9157 102.173C69.7143 101.186 67.9336 100.693 65.5736 100.693C63.6856 100.693 61.9263 101.057 60.2958 101.787C58.7082 102.516 57.3565 103.653 56.2409 105.198L48.646 100.307C50.3624 97.7321 52.7653 95.6939 55.8547 94.1921C58.9442 92.6903 62.5056 91.9394 66.539 91.9394C69.8859 91.9394 72.8037 92.4972 75.2924 93.6128C77.824 94.6855 79.7764 96.2088 81.1495 98.1826C82.5655 100.156 83.2735 102.516 83.2735 105.263C83.2735 106.721 83.0804 108.18 82.6942 109.639C82.3509 111.055 81.6215 112.557 80.5058 114.145C79.4331 115.732 77.8455 117.513 75.743 119.487L61.3256 133.067L59.3303 129.27H84.7538V137.766H50.7057ZM104.889 91.9394C109.052 91.9394 112.634 92.7975 115.638 94.5139C118.642 96.2302 120.959 98.7404 122.589 102.044C124.22 105.305 125.035 109.382 125.035 114.273C125.035 119.465 124.048 123.864 122.074 127.468C120.144 131.072 117.462 133.818 114.029 135.706C110.596 137.594 106.606 138.538 102.057 138.538C99.6975 138.538 97.4233 138.281 95.235 137.766C93.0466 137.251 91.1586 136.479 89.571 135.449L93.4328 127.79C94.6772 128.648 96.0073 129.249 97.4233 129.592C98.8393 129.892 100.32 130.042 101.864 130.042C105.726 130.042 108.794 128.862 111.068 126.502C113.385 124.142 114.544 120.645 114.544 116.011C114.544 115.239 114.522 114.381 114.48 113.437C114.437 112.493 114.329 111.549 114.158 110.605L116.99 113.308C116.26 114.981 115.23 116.397 113.9 117.556C112.57 118.672 111.025 119.53 109.266 120.13C107.507 120.688 105.533 120.967 103.345 120.967C100.47 120.967 97.8524 120.388 95.4924 119.229C93.1753 118.071 91.3088 116.44 89.8928 114.338C88.5197 112.235 87.8332 109.768 87.8332 106.936C87.8332 103.847 88.5841 101.186 90.0859 98.955C91.6306 96.7237 93.6902 95.0073 96.2648 93.8059C98.8822 92.5615 101.757 91.9394 104.889 91.9394ZM105.533 99.7273C104.031 99.7273 102.723 100.006 101.607 100.564C100.491 101.079 99.6117 101.851 98.968 102.881C98.3244 103.868 98.0026 105.048 98.0026 106.421C98.0026 108.481 98.6891 110.133 100.062 111.377C101.478 112.579 103.345 113.179 105.662 113.179C107.164 113.179 108.494 112.9 109.652 112.343C110.854 111.742 111.776 110.927 112.42 109.897C113.064 108.867 113.385 107.708 113.385 106.421C113.385 105.134 113.064 103.997 112.42 103.01C111.819 101.98 110.94 101.186 109.781 100.628C108.623 100.028 107.207 99.7273 105.533 99.7273Z" fill="#FFF0DF"/>
</svg>
