<svg width="176" height="176" viewBox="0 0 176 176" fill="none" xmlns="http://www.w3.org/2000/svg">
<rect width="175.819" height="175.016" rx="37.7329" fill="#AC5C39"/>
<path d="M53.5831 59.5524C51.6831 59.5524 49.9302 59.2045 48.3246 58.5087C46.7457 57.7862 45.4478 56.7692 44.4309 55.458L48.0436 51.1227C48.8196 52.1396 49.6358 52.9157 50.4922 53.4509C51.3485 53.9593 52.2718 54.2136 53.2619 54.2136C55.9113 54.2136 57.2359 52.6614 57.2359 49.5572V36.1901H47.3612V30.9717H63.6987V49.1959C63.6987 52.6748 62.8423 55.2706 61.1297 56.9833C59.417 58.696 56.9014 59.5524 53.5831 59.5524ZM82.6059 59.5524C78.6185 59.5524 75.5009 58.4418 73.253 56.2206C71.0051 53.9995 69.8811 50.8283 69.8811 46.7071V30.9717H76.384V46.4663C76.384 49.1424 76.9326 51.0692 78.0298 52.2466C79.127 53.4241 80.6657 54.0129 82.646 54.0129C84.6263 54.0129 86.1651 53.4241 87.2623 52.2466C88.3595 51.0692 88.9081 49.1424 88.9081 46.4663V30.9717H95.3307V46.7071C95.3307 50.8283 94.2067 53.9995 91.9588 56.2206C89.7109 58.4418 86.5933 59.5524 82.6059 59.5524ZM101.757 59.0707V30.9717H107.136L123.714 51.203H121.105V30.9717H127.528V59.0707H122.189L105.57 38.8394H108.179V59.0707H101.757ZM65.8825 137.071V95.9659L70.3783 100.462H56.8908V92.1124H76.2871V137.071H65.8825ZM83.7118 137.071V130.327L101.053 113.949C102.423 112.708 103.429 111.594 104.071 110.609C104.714 109.625 105.142 108.726 105.356 107.912C105.613 107.098 105.741 106.349 105.741 105.664C105.741 103.866 105.121 102.496 103.879 101.554C102.68 100.569 100.903 100.076 98.548 100.076C96.6641 100.076 94.9086 100.44 93.2815 101.168C91.6972 101.896 90.3485 103.031 89.2352 104.572L81.6566 99.6911C83.3693 97.122 85.767 95.0882 88.8499 93.5896C91.9327 92.091 95.4866 91.3417 99.5114 91.3417C102.851 91.3417 105.763 91.8983 108.246 93.0115C110.772 94.082 112.721 95.602 114.091 97.5716C115.504 99.5412 116.21 101.896 116.21 104.636C116.21 106.092 116.018 107.548 115.632 109.004C115.29 110.417 114.562 111.915 113.449 113.5C112.378 115.084 110.794 116.861 108.696 118.83L94.3091 132.382L92.3181 128.593H117.687V137.071H83.7118Z" fill="#FFF0DF"/>
</svg>
