<svg width="177" height="177" viewBox="0 0 177 177" fill="none" xmlns="http://www.w3.org/2000/svg">
<rect y="0.95752" width="176.194" height="175.39" rx="37.8134" fill="#AC5C39"/>
<path d="M57.7336 60.554C55.8295 60.554 54.0729 60.2054 52.4638 59.5081C50.8816 58.784 49.5809 57.7649 48.5618 56.4509L52.1822 52.1063C52.9599 53.1254 53.7779 53.9031 54.6361 54.4395C55.4943 54.949 56.4195 55.2038 57.4117 55.2038C60.0667 55.2038 61.3942 53.6484 61.3942 50.5375V37.1419H51.4984V31.9124H67.8708V50.1754C67.8708 53.6618 67.0126 56.2631 65.2962 57.9795C63.5799 59.6958 61.059 60.554 57.7336 60.554ZM86.8183 60.554C82.8224 60.554 79.6981 59.4411 77.4454 57.2152C75.1927 54.9893 74.0664 51.8113 74.0664 47.6814V31.9124H80.5831V47.44C80.5831 50.1218 81.1329 52.0527 82.2324 53.2327C83.332 54.4127 84.874 55.0027 86.8586 55.0027C88.8431 55.0027 90.3851 54.4127 91.4847 53.2327C92.5842 52.0527 93.134 50.1218 93.134 47.44V31.9124H99.5703V47.6814C99.5703 51.8113 98.4439 54.9893 96.1912 57.2152C93.9385 59.4411 90.8142 60.554 86.8183 60.554ZM106.01 60.0713V31.9124H112.527V54.7613H126.647V60.0713H106.01ZM72.3338 138.071V96.8788L76.8392 101.384H63.3229V93.017H82.7606V138.071H72.3338ZM97.5385 138.071V96.8788L102.044 101.384H88.5277V93.017H107.965V138.071H97.5385Z" fill="#FFF0DF"/>
</svg>
