<svg width="176" height="176" viewBox="0 0 176 176" fill="none" xmlns="http://www.w3.org/2000/svg">
<rect width="176" height="175.196" rx="37.7717" fill="#AC5C39"/>
<path d="M40.1826 59.0916L52.7195 30.9637H59.1488L71.7259 59.0916H64.8949L54.6081 34.2587H57.1798L46.8529 59.0916H40.1826ZM46.4511 53.0642L48.1789 48.1217H62.6447L64.4127 53.0642H46.4511ZM87.8335 59.5737C85.6101 59.5737 83.5608 59.2255 81.6856 58.529C79.8372 57.8057 78.2165 56.7877 76.8235 55.4751C75.4573 54.1625 74.3857 52.6221 73.6089 50.8541C72.8588 49.0861 72.4838 47.1439 72.4838 45.0276C72.4838 42.9113 72.8588 40.9692 73.6089 39.2011C74.3857 37.4331 75.4707 35.8928 76.8637 34.5801C78.2567 33.2675 79.8908 32.2629 81.766 31.5664C83.6411 30.8432 85.7039 30.4815 87.9541 30.4815C90.4454 30.4815 92.6822 30.8967 94.6646 31.7272C96.6737 32.5576 98.3614 33.7631 99.7276 35.3436L95.5486 39.2011C94.5306 38.1296 93.4189 37.3393 92.2134 36.8304C91.008 36.2946 89.6953 36.0267 88.2755 36.0267C86.9093 36.0267 85.6637 36.241 84.5386 36.6696C83.4134 37.0982 82.4357 37.7144 81.6052 38.518C80.8016 39.3217 80.172 40.2727 79.7166 41.371C79.288 42.4693 79.0737 43.6882 79.0737 45.0276C79.0737 46.3403 79.288 47.5457 79.7166 48.6441C80.172 49.7424 80.8016 50.7068 81.6052 51.5372C82.4357 52.3409 83.4 52.957 84.4984 53.3856C85.6235 53.8142 86.8558 54.0285 88.1952 54.0285C89.481 54.0285 90.7267 53.8276 91.9322 53.4258C93.1644 52.9972 94.3565 52.2873 95.5084 51.2961L99.2052 55.9975C97.6783 57.1494 95.8968 58.0334 93.8609 58.6495C91.8518 59.2657 89.8427 59.5737 87.8335 59.5737ZM93.2582 55.1537V44.5856H99.2052V55.9975L93.2582 55.1537ZM118.914 59.5737C116.691 59.5737 114.628 59.2121 112.726 58.4888C110.851 57.7655 109.217 56.7476 107.824 55.4349C106.458 54.1223 105.386 52.582 104.609 50.8139C103.859 49.0459 103.484 47.1171 103.484 45.0276C103.484 42.9381 103.859 41.0094 104.609 39.2413C105.386 37.4733 106.471 35.933 107.864 34.6203C109.257 33.3077 110.891 32.2897 112.766 31.5664C114.641 30.8432 116.677 30.4815 118.874 30.4815C121.097 30.4815 123.133 30.8432 124.982 31.5664C126.857 32.2897 128.478 33.3077 129.844 34.6203C131.237 35.933 132.322 37.4733 133.099 39.2413C133.876 40.9826 134.264 42.9113 134.264 45.0276C134.264 47.1171 133.876 49.0593 133.099 50.8541C132.322 52.6221 131.237 54.1625 129.844 55.4751C128.478 56.761 126.857 57.7655 124.982 58.4888C123.133 59.2121 121.111 59.5737 118.914 59.5737ZM118.874 54.0285C120.133 54.0285 121.285 53.8142 122.33 53.3856C123.401 52.957 124.339 52.3409 125.142 51.5372C125.946 50.7336 126.562 49.7826 126.991 48.6842C127.446 47.5859 127.674 46.367 127.674 45.0276C127.674 43.6882 127.446 42.4693 126.991 41.371C126.562 40.2727 125.946 39.3217 125.142 38.518C124.366 37.7144 123.441 37.0982 122.37 36.6696C121.298 36.241 120.133 36.0267 118.874 36.0267C117.615 36.0267 116.45 36.241 115.378 36.6696C114.333 37.0982 113.409 37.7144 112.606 38.518C111.802 39.3217 111.172 40.2727 110.717 41.371C110.288 42.4693 110.074 43.6882 110.074 45.0276C110.074 46.3403 110.288 47.5591 110.717 48.6842C111.172 49.7826 111.788 50.7336 112.565 51.5372C113.369 52.3409 114.307 52.957 115.378 53.3856C116.45 53.8142 117.615 54.0285 118.874 54.0285ZM71.3431 137.092V130.341L88.702 113.946C90.0735 112.703 91.0808 111.589 91.7237 110.603C92.3666 109.617 92.7953 108.717 93.0096 107.903C93.2667 107.089 93.3953 106.338 93.3953 105.653C93.3953 103.852 92.7738 102.481 91.5308 101.538C90.3307 100.552 88.552 100.059 86.1946 100.059C84.3087 100.059 82.5514 100.424 80.9226 101.152C79.3367 101.881 77.9866 103.017 76.8722 104.56L69.2857 99.6735C71.0002 97.1018 73.4004 95.0659 76.4865 93.5657C79.5725 92.0655 83.13 91.3155 87.159 91.3155C90.5022 91.3155 93.4167 91.8727 95.9027 92.9871C98.4315 94.0586 100.382 95.5802 101.753 97.5518C103.168 99.5235 103.875 101.881 103.875 104.624C103.875 106.081 103.682 107.539 103.296 108.996C102.953 110.41 102.225 111.91 101.11 113.496C100.039 115.082 98.453 116.861 96.3528 118.833L81.9513 132.398L79.9582 128.605H105.354V137.092H71.3431Z" fill="#FFF0DF"/>
</svg>
