<svg width="177" height="176" viewBox="0 0 177 176" fill="none" xmlns="http://www.w3.org/2000/svg">
<rect y="0.610107" width="176.194" height="175.39" rx="37.8134" fill="#AC5C39"/>
<path d="M57.7336 60.2061C55.8295 60.2061 54.0729 59.8575 52.4638 59.1602C50.8816 58.4361 49.5809 57.417 48.5618 56.103L52.1822 51.7584C52.9599 52.7775 53.7779 53.5552 54.6361 54.0916C55.4943 54.6011 56.4195 54.8559 57.4117 54.8559C60.0667 54.8559 61.3942 53.3005 61.3942 50.1896V36.794H51.4984V31.5645H67.8708V49.8275C67.8708 53.3139 67.0126 55.9152 65.2962 57.6316C63.5799 59.3479 61.059 60.2061 57.7336 60.2061ZM86.8183 60.2061C82.8224 60.2061 79.6981 59.0932 77.4454 56.8673C75.1927 54.6414 74.0664 51.4634 74.0664 47.3335V31.5645H80.5831V47.0921C80.5831 49.7739 81.1329 51.7048 82.2324 52.8848C83.332 54.0648 84.874 54.6548 86.8586 54.6548C88.8431 54.6548 90.3851 54.0648 91.4847 52.8848C92.5842 51.7048 93.134 49.7739 93.134 47.0921V31.5645H99.5703V47.3335C99.5703 51.4634 98.4439 54.6414 96.1912 56.8673C93.9385 59.0932 90.8142 60.2061 86.8183 60.2061ZM106.01 59.7234V31.5645H112.527V54.4134H126.647V59.7234H106.01ZM58.6166 137.723V130.965L75.9947 114.553C77.3678 113.308 78.3762 112.193 79.0198 111.206C79.6634 110.219 80.0925 109.318 80.307 108.502C80.5645 107.687 80.6932 106.936 80.6932 106.25C80.6932 104.448 80.071 103.075 78.8267 102.131C77.6252 101.144 75.8445 100.65 73.4845 100.65C71.5966 100.65 69.8373 101.015 68.2068 101.744C66.6191 102.474 65.2675 103.611 64.1519 105.156L56.557 100.264C58.2734 97.6895 60.6763 95.6513 63.7657 94.1495C66.8551 92.6477 70.4166 91.8968 74.45 91.8968C77.7969 91.8968 80.7147 92.4546 83.2034 93.5702C85.735 94.6429 87.6874 96.1662 89.0605 98.14C90.4764 100.114 91.1844 102.474 91.1844 105.22C91.1844 106.679 90.9913 108.138 90.6052 109.597C90.2619 111.013 89.5324 112.514 88.4168 114.102C87.3441 115.69 85.7565 117.47 83.6539 119.444L69.2366 133.025L67.2413 129.227H92.6648V137.723H58.6166ZM103.918 137.723V96.5309L108.424 101.036H94.9074V92.6691H114.345V137.723H103.918Z" fill="#FFF0DF"/>
</svg>
