<svg width="177" height="176" viewBox="0 0 177 176" fill="none" xmlns="http://www.w3.org/2000/svg">
<rect y="0.0131836" width="176.194" height="175.39" rx="37.8134" fill="#AC5C39"/>
<path d="M57.7336 59.6093C55.8295 59.6093 54.0729 59.2607 52.4638 58.5634C50.8816 57.8393 49.5809 56.8202 48.5618 55.5062L52.1822 51.1616C52.9599 52.1807 53.7779 52.9584 54.6361 53.4948C55.4943 54.0043 56.4195 54.2591 57.4117 54.2591C60.0667 54.2591 61.3942 52.7037 61.3942 49.5928V36.1972H51.4984V30.9677H67.8708V49.2307C67.8708 52.7171 67.0126 55.3184 65.2962 57.0348C63.5799 58.7511 61.059 59.6093 57.7336 59.6093ZM86.8183 59.6093C82.8224 59.6093 79.6981 58.4964 77.4454 56.2705C75.1927 54.0446 74.0664 50.8666 74.0664 46.7367V30.9677H80.5831V46.4953C80.5831 49.1771 81.1329 51.108 82.2324 52.288C83.332 53.468 84.874 54.058 86.8586 54.058C88.8431 54.058 90.3851 53.468 91.4847 52.288C92.5842 51.108 93.134 49.1771 93.134 46.4953V30.9677H99.5703V46.7367C99.5703 50.8666 98.4439 54.0446 96.1912 56.2705C93.9385 58.4964 90.8142 59.6093 86.8183 59.6093ZM106.01 59.1266V30.9677H112.527V53.8166H126.647V59.1266H106.01ZM86.7665 137.899C83.6342 137.899 80.5233 137.491 77.4338 136.676C74.3873 135.818 71.7699 134.616 69.5815 133.072L73.7008 125.091C75.4171 126.335 77.3909 127.322 79.6222 128.051C81.8964 128.781 84.192 129.146 86.509 129.146C89.1265 129.146 91.1861 128.631 92.6879 127.601C94.1897 126.571 94.9406 125.134 94.9406 123.288C94.9406 122.13 94.6403 121.1 94.0395 120.199C93.4388 119.298 92.3661 118.611 90.8214 118.139C89.3196 117.667 87.1956 117.431 84.4494 117.431H72.9284L75.2455 92.0723H102.729V100.44H78.9785L84.3851 95.6767L82.776 113.763L77.3695 109H86.8952C91.3577 109 94.9406 109.622 97.6439 110.866C100.39 112.068 102.385 113.72 103.63 115.822C104.874 117.925 105.496 120.306 105.496 122.967C105.496 125.627 104.831 128.094 103.501 130.368C102.171 132.6 100.111 134.423 97.3221 135.839C94.5759 137.212 91.0574 137.899 86.7665 137.899Z" fill="#FFF0DF"/>
</svg>
