<svg width="507" height="130" viewBox="0 0 507 130" fill="none" xmlns="http://www.w3.org/2000/svg">
<path d="M505.5 65C505.5 73.1355 499.039 81.2961 486.301 89.0182C473.653 96.6858 455.251 103.644 432.379 109.509C386.658 121.232 323.414 128.5 253.5 128.5C183.586 128.5 120.342 121.232 74.621 109.509C51.7492 103.644 33.3471 96.6858 20.6989 89.0182C7.96073 81.2961 1.5 73.1355 1.5 65C1.5 56.8645 7.96073 48.7039 20.6989 40.9818C33.3471 33.3142 51.7492 26.3556 74.621 20.4911C120.342 8.76772 183.586 1.5 253.5 1.5C323.414 1.5 386.658 8.76772 432.379 20.4911C455.251 26.3556 473.653 33.3142 486.301 40.9818C499.039 48.7039 505.5 56.8645 505.5 65Z" stroke="white" stroke-width="3"/>
<path d="M98.93 73.35C97.25 73.35 95.6867 73.07 94.24 72.51C92.7933 71.95 91.5333 71.1567 90.46 70.13C89.3867 69.1033 88.5467 67.9017 87.94 66.525C87.3333 65.1483 87.03 63.6433 87.03 62.01C87.03 60.2133 87.3683 58.5567 88.045 57.04C88.745 55.5233 89.69 54.205 90.88 53.085C92.07 51.965 93.435 51.1017 94.975 50.495C96.5383 49.865 98.1833 49.55 99.91 49.55C101.147 49.55 102.197 49.62 103.06 49.76C103.947 49.9 104.728 50.0983 105.405 50.355C106.105 50.6117 106.793 50.9033 107.47 51.23L107.75 57.215H107.155L104.285 52.665C103.492 52.1517 102.78 51.79 102.15 51.58C101.52 51.37 100.797 51.265 99.98 51.265C98.3933 51.265 96.9583 51.6733 95.675 52.49C94.3917 53.3067 93.3767 54.4383 92.63 55.885C91.8833 57.3317 91.51 59 91.51 60.89C91.51 63.0833 91.8833 64.9617 92.63 66.525C93.4 68.0883 94.415 69.29 95.675 70.13C96.9583 70.97 98.3817 71.39 99.945 71.39C100.482 71.39 101.042 71.3667 101.625 71.32C102.208 71.25 102.792 71.1333 103.375 70.97V64.74L100.26 63.2V62.64H110.305V63.2L107.75 64.81V70.41C107.05 71.0167 106.198 71.5417 105.195 71.985C104.192 72.405 103.142 72.7433 102.045 73C100.972 73.2333 99.9333 73.35 98.93 73.35ZM111.954 73V72.44L114.124 71.25L123.189 49.725H125.639L134.599 71.18L136.979 72.44V73H126.899V72.44L129.944 71.215L127.459 65.125H119.059L116.609 71.215L119.514 72.44V73H111.954ZM119.864 63.2H126.654L123.259 54.835L119.864 63.2ZM139.523 73V72.44L142.428 71.005V51.93L139.558 50.46V49.9H145.578L159.088 65.86V51.825L155.308 50.46V49.9H164.408V50.46L161.538 51.86V73.175H159.718L144.878 55.745V71.04L148.693 72.44V73H139.523ZM166.061 73V72.44L168.231 71.25L177.296 49.725H179.746L188.706 71.18L191.086 72.44V73H181.006V72.44L184.051 71.215L181.566 65.125H173.166L170.716 71.215L173.621 72.44V73H166.061ZM173.971 63.2H180.761L177.366 54.835L173.971 63.2ZM201.294 73.35C199.801 73.35 198.494 73.21 197.374 72.93C196.277 72.6267 195.181 72.195 194.084 71.635L193.734 65.79H194.364L196.499 69.815C197.946 71.005 199.462 71.6 201.049 71.6C202.356 71.6 203.406 71.285 204.199 70.655C204.992 70.0017 205.389 69.08 205.389 67.89C205.389 67.0033 205.179 66.2917 204.759 65.755C204.362 65.195 203.744 64.6933 202.904 64.25C202.064 63.7833 200.967 63.2467 199.614 62.64C197.981 61.8467 196.721 60.995 195.834 60.085C194.947 59.1517 194.504 57.9033 194.504 56.34C194.504 55.4533 194.726 54.6017 195.169 53.785C195.612 52.9683 196.196 52.245 196.919 51.615C197.666 50.985 198.494 50.4833 199.404 50.11C200.337 49.7367 201.294 49.55 202.274 49.55C203.441 49.55 204.526 49.69 205.529 49.97C206.556 50.2267 207.536 50.6 208.469 51.09L208.819 56.69H208.224L206.089 52.84C205.412 52.3267 204.782 51.9417 204.199 51.685C203.616 51.4283 202.951 51.3 202.204 51.3C201.224 51.3 200.407 51.6267 199.754 52.28C199.124 52.9333 198.809 53.7617 198.809 54.765C198.809 55.815 199.159 56.6667 199.859 57.32C200.559 57.95 201.726 58.65 203.359 59.42C204.782 60.0733 205.949 60.715 206.859 61.345C207.769 61.975 208.446 62.6867 208.889 63.48C209.332 64.2733 209.554 65.2533 209.554 66.42C209.554 67.54 209.309 68.5317 208.819 69.395C208.352 70.235 207.711 70.9583 206.894 71.565C206.101 72.1483 205.214 72.5917 204.234 72.895C203.254 73.1983 202.274 73.35 201.294 73.35ZM226.308 73V72.44L229.948 71.005V51.825H224.663L222.038 57.32H221.478V49.9H242.828V57.32H242.268L239.643 51.825H234.358V71.005L237.963 72.44V73H226.308ZM258.173 73.35C256.47 73.35 254.895 73.0583 253.448 72.475C252.001 71.8683 250.741 71.04 249.668 69.99C248.595 68.9167 247.755 67.6567 247.148 66.21C246.565 64.7633 246.273 63.1767 246.273 61.45C246.273 59.7233 246.565 58.1367 247.148 56.69C247.755 55.2433 248.595 53.995 249.668 52.945C250.741 51.8717 252.001 51.0433 253.448 50.46C254.895 49.8533 256.47 49.55 258.173 49.55C259.9 49.55 261.486 49.8533 262.933 50.46C264.38 51.0433 265.64 51.8717 266.713 52.945C267.786 53.995 268.615 55.2433 269.198 56.69C269.805 58.1367 270.108 59.7233 270.108 61.45C270.108 63.1767 269.805 64.7633 269.198 66.21C268.615 67.6567 267.786 68.9167 266.713 69.99C265.64 71.04 264.38 71.8683 262.933 72.475C261.486 73.0583 259.9 73.35 258.173 73.35ZM258.803 71.565C260.11 71.565 261.253 71.1917 262.233 70.445C263.236 69.6983 264.018 68.6483 264.578 67.295C265.138 65.9417 265.418 64.3433 265.418 62.5C265.418 60.2367 265.068 58.265 264.368 56.585C263.691 54.905 262.758 53.61 261.568 52.7C260.401 51.7667 259.095 51.3 257.648 51.3C256.365 51.3 255.21 51.6733 254.183 52.42C253.18 53.1433 252.386 54.1817 251.803 55.535C251.22 56.8883 250.928 58.4867 250.928 60.33C250.928 62.5933 251.278 64.565 251.978 66.245C252.678 67.925 253.623 69.2317 254.813 70.165C256.026 71.0983 257.356 71.565 258.803 71.565ZM286.455 73.35C284.541 73.35 282.85 73.0233 281.38 72.37C279.91 71.7167 278.755 70.6667 277.915 69.22C277.075 67.7733 276.655 65.86 276.655 63.48V51.895L273.715 50.46V49.9H283.97V50.46L281.065 51.895V63.27C281.065 65.1833 281.368 66.7117 281.975 67.855C282.581 68.975 283.386 69.78 284.39 70.27C285.416 70.7367 286.56 70.97 287.82 70.97C288.846 70.97 289.791 70.76 290.655 70.34C291.541 69.8967 292.253 69.2083 292.79 68.275C293.326 67.3183 293.595 66.0583 293.595 64.495V51.825L290.235 50.46V49.9H298.95V50.46L296.045 51.86V63.48C296.045 65.86 295.636 67.7733 294.82 69.22C294.003 70.6667 292.871 71.7167 291.425 72.37C289.978 73.0233 288.321 73.35 286.455 73.35ZM302.631 73V72.44L305.571 71.005V51.895L302.631 50.46V49.9H313.411C315.861 49.9 317.786 50.4133 319.186 51.44C320.609 52.4433 321.321 53.8317 321.321 55.605C321.321 56.9117 320.877 58.055 319.991 59.035C319.127 59.9917 317.984 60.7383 316.561 61.275L323.106 71.11L325.556 72.44V73H319.011L312.396 62.325H309.946V70.97L312.571 72.44V73H302.631ZM311.731 51.825H309.946V60.54H311.941C313.387 60.54 314.554 60.1317 315.441 59.315C316.351 58.4983 316.806 57.4367 316.806 56.13C316.806 54.7767 316.362 53.7267 315.476 52.98C314.589 52.21 313.341 51.825 311.731 51.825ZM335.887 73V71.88C337.824 69.71 339.422 67.89 340.682 66.42C341.966 64.95 342.969 63.7133 343.692 62.71C344.439 61.7067 344.987 60.8317 345.337 60.085C345.687 59.3383 345.909 58.615 346.002 57.915C346.096 57.1917 346.142 56.3867 346.142 55.5C346.142 54.2633 345.839 53.2483 345.232 52.455C344.626 51.6617 343.797 51.265 342.747 51.265C340.367 51.265 339.177 52.5833 339.177 55.22V56.83L338.967 57.11H336.902C336.436 57.11 336.086 57.0283 335.852 56.865C335.619 56.7017 335.502 56.2933 335.502 55.64C335.502 54.9867 335.701 54.3333 336.097 53.68C336.517 53.0033 337.159 52.35 338.022 51.72C338.629 51.3 339.212 50.9267 339.772 50.6C340.332 50.2733 340.951 50.0167 341.627 49.83C342.327 49.6433 343.144 49.55 344.077 49.55C345.384 49.55 346.539 49.83 347.542 50.39C348.569 50.95 349.362 51.6967 349.922 52.63C350.506 53.5633 350.797 54.6017 350.797 55.745C350.797 56.4917 350.704 57.18 350.517 57.81C350.354 58.44 350.051 59.0933 349.607 59.77C349.164 60.4467 348.534 61.2167 347.717 62.08C346.924 62.9433 345.909 63.9817 344.672 65.195C343.436 66.385 341.919 67.82 340.122 69.5H349.012L350.937 66.07H351.497L351.147 73H335.887ZM354.652 73V71.88C356.589 69.71 358.187 67.89 359.447 66.42C360.73 64.95 361.734 63.7133 362.457 62.71C363.204 61.7067 363.752 60.8317 364.102 60.085C364.452 59.3383 364.674 58.615 364.767 57.915C364.86 57.1917 364.907 56.3867 364.907 55.5C364.907 54.2633 364.604 53.2483 363.997 52.455C363.39 51.6617 362.562 51.265 361.512 51.265C359.132 51.265 357.942 52.5833 357.942 55.22V56.83L357.732 57.11H355.667C355.2 57.11 354.85 57.0283 354.617 56.865C354.384 56.7017 354.267 56.2933 354.267 55.64C354.267 54.9867 354.465 54.3333 354.862 53.68C355.282 53.0033 355.924 52.35 356.787 51.72C357.394 51.3 357.977 50.9267 358.537 50.6C359.097 50.2733 359.715 50.0167 360.392 49.83C361.092 49.6433 361.909 49.55 362.842 49.55C364.149 49.55 365.304 49.83 366.307 50.39C367.334 50.95 368.127 51.6967 368.687 52.63C369.27 53.5633 369.562 54.6017 369.562 55.745C369.562 56.4917 369.469 57.18 369.282 57.81C369.119 58.44 368.815 59.0933 368.372 59.77C367.929 60.4467 367.299 61.2167 366.482 62.08C365.689 62.9433 364.674 63.9817 363.437 65.195C362.2 66.385 360.684 67.82 358.887 69.5H367.777L369.702 66.07H370.262L369.912 73H354.652ZM371.597 77.2L378.597 46.75H380.347L373.347 77.2H371.597ZM382.167 73V71.88C384.103 69.71 385.702 67.89 386.962 66.42C388.245 64.95 389.248 63.7133 389.972 62.71C390.718 61.7067 391.267 60.8317 391.617 60.085C391.967 59.3383 392.188 58.615 392.282 57.915C392.375 57.1917 392.422 56.3867 392.422 55.5C392.422 54.2633 392.118 53.2483 391.512 52.455C390.905 51.6617 390.077 51.265 389.027 51.265C386.647 51.265 385.457 52.5833 385.457 55.22V56.83L385.247 57.11H383.182C382.715 57.11 382.365 57.0283 382.132 56.865C381.898 56.7017 381.782 56.2933 381.782 55.64C381.782 54.9867 381.98 54.3333 382.377 53.68C382.797 53.0033 383.438 52.35 384.302 51.72C384.908 51.3 385.492 50.9267 386.052 50.6C386.612 50.2733 387.23 50.0167 387.907 49.83C388.607 49.6433 389.423 49.55 390.357 49.55C391.663 49.55 392.818 49.83 393.822 50.39C394.848 50.95 395.642 51.6967 396.202 52.63C396.785 53.5633 397.077 54.6017 397.077 55.745C397.077 56.4917 396.983 57.18 396.797 57.81C396.633 58.44 396.33 59.0933 395.887 59.77C395.443 60.4467 394.813 61.2167 393.997 62.08C393.203 62.9433 392.188 63.9817 390.952 65.195C389.715 66.385 388.198 67.82 386.402 69.5H395.292L397.217 66.07H397.777L397.427 73H382.167ZM408.141 73.35C407.068 73.35 406.053 73.2217 405.096 72.965C404.14 72.7083 403.265 72.3117 402.471 71.775C401.818 71.3083 401.305 70.8183 400.931 70.305C400.558 69.7917 400.371 69.2433 400.371 68.66C400.371 68.1233 400.476 67.785 400.686 67.645C400.896 67.505 401.223 67.435 401.666 67.435H403.696L404.011 67.75V68.94C404.011 69.8267 404.338 70.515 404.991 71.005C405.668 71.4717 406.636 71.705 407.896 71.705C409.273 71.705 410.323 71.2617 411.046 70.375C411.793 69.4883 412.166 68.3567 412.166 66.98C412.166 65.37 411.746 64.11 410.906 63.2C410.066 62.29 408.608 61.835 406.531 61.835H404.606V60.225H406.006C407.523 60.225 408.725 59.7583 409.611 58.825C410.521 57.8917 410.976 56.69 410.976 55.22C410.976 53.82 410.696 52.7933 410.136 52.14C409.576 51.4867 408.771 51.16 407.721 51.16C406.811 51.16 406.053 51.4517 405.446 52.035C404.863 52.595 404.571 53.3533 404.571 54.31V55.745L404.291 56.06H402.331C401.865 56.06 401.515 55.99 401.281 55.85C401.048 55.6867 400.931 55.3133 400.931 54.73C400.931 53.4233 401.736 52.2683 403.346 51.265C404.256 50.6817 405.108 50.25 405.901 49.97C406.695 49.69 407.663 49.55 408.806 49.55C410.09 49.55 411.245 49.7833 412.271 50.25C413.321 50.6933 414.138 51.335 414.721 52.175C415.328 52.9917 415.631 53.9483 415.631 55.045C415.631 56.3517 415.095 57.4833 414.021 58.44C412.971 59.3967 411.618 60.0617 409.961 60.435C412.201 60.7383 413.905 61.4267 415.071 62.5C416.261 63.5733 416.856 64.985 416.856 66.735C416.856 67.9717 416.448 69.0917 415.631 70.095C414.838 71.0983 413.776 71.8917 412.446 72.475C411.116 73.0583 409.681 73.35 408.141 73.35Z" fill="white"/>
</svg>
