<svg width="31" height="31" viewBox="0 0 31 31" fill="none" xmlns="http://www.w3.org/2000/svg">
<path d="M15.8471 3.04227C19.8927 3.04227 20.3741 3.05763 21.9718 3.12933C23.4518 3.1959 24.2507 3.44171 24.7833 3.65167C25.49 3.92821 25.997 4.25596 26.5245 4.78343C27.057 5.31602 27.3848 5.81788 27.6562 6.52459C27.8662 7.05718 28.112 7.86118 28.1786 9.33605C28.2503 10.9338 28.2656 11.4152 28.2656 15.4608C28.2656 19.5065 28.2503 19.9878 28.1786 21.5856C28.112 23.0656 27.8662 23.8645 27.6562 24.3971C27.3797 25.1038 27.0519 25.6108 26.5245 26.1382C25.9919 26.6708 25.49 26.9986 24.7833 27.27C24.2507 27.48 23.4467 27.7258 21.9718 27.7923C20.3741 27.864 19.8927 27.8794 15.8471 27.8794C11.8014 27.8794 11.32 27.864 9.72227 27.7923C8.24229 27.7258 7.44341 27.48 6.91082 27.27C6.20411 26.9935 5.69713 26.6657 5.16966 26.1382C4.63707 25.6056 4.30931 25.1038 4.0379 24.3971C3.82793 23.8645 3.58213 23.0605 3.51555 21.5856C3.44386 19.9878 3.42849 19.5065 3.42849 15.4608C3.42849 11.4152 3.44386 10.9338 3.51555 9.33605C3.58213 7.85606 3.82793 7.05718 4.0379 6.52459C4.31443 5.81788 4.64219 5.3109 5.16966 4.78343C5.70225 4.25084 6.20411 3.92309 6.91082 3.65167C7.44341 3.44171 8.24741 3.1959 9.72227 3.12933C11.32 3.05763 11.8014 3.04227 15.8471 3.04227ZM15.8471 0.312744C11.7297 0.312744 11.2176 0.328107 9.59937 0.404923C7.98624 0.476618 6.88522 0.732671 5.92246 1.11163C4.92385 1.50083 4.07887 2.01806 3.23901 2.85791C2.39404 3.70288 1.87681 4.54786 1.49273 5.54134C1.11889 6.5041 0.862854 7.60513 0.786039 9.21826C0.714344 10.8365 0.693848 11.3486 0.693848 15.466C0.693848 19.5833 0.709223 20.0954 0.786039 21.7136C0.857733 23.3268 1.11377 24.4278 1.49273 25.3906C1.88193 26.3892 2.39916 27.2341 3.23901 28.074C4.08399 28.919 4.92897 29.4362 5.92246 29.8203C6.88522 30.1941 7.98624 30.4502 9.59937 30.527C11.2176 30.5987 11.7297 30.6192 15.8471 30.6192C19.9644 30.6192 20.4765 30.6038 22.0947 30.527C23.7079 30.4553 24.8089 30.1992 25.7717 29.8203C26.7703 29.4311 27.6153 28.9139 28.4551 28.074C29.3001 27.229 29.8173 26.384 30.2014 25.3906C30.5752 24.4278 30.8313 23.3268 30.9081 21.7136C30.9798 20.0954 31.0003 19.5833 31.0003 15.466C31.0003 11.3486 30.9849 10.8365 30.9081 9.21826C30.8364 7.60513 30.5803 6.5041 30.2014 5.54134C29.8122 4.54274 29.295 3.69776 28.4551 2.85791C27.6101 2.01293 26.7651 1.49571 25.7717 1.11163C24.8089 0.737792 23.7079 0.481739 22.0947 0.404923C20.4765 0.333229 19.9644 0.312744 15.8471 0.312744Z" fill="#FFF0DF"/>
<path d="M15.847 7.6864C11.5504 7.6864 8.06299 11.1687 8.06299 15.4704C8.06299 19.7721 11.5453 23.2544 15.847 23.2544C20.1487 23.2544 23.631 19.7721 23.631 15.4704C23.631 11.1687 20.1487 7.6864 15.847 7.6864ZM15.847 20.5198C13.056 20.5198 10.7976 18.2563 10.7976 15.4704C10.7976 12.6846 13.0611 10.421 15.847 10.421C18.6328 10.421 20.8964 12.6846 20.8964 15.4704C20.8964 18.2563 18.6328 20.5198 15.847 20.5198Z" fill="#FFF0DF"/>
<path d="M23.9381 9.19259C24.9421 9.19259 25.7561 8.37866 25.7561 7.37462C25.7561 6.37058 24.9421 5.55664 23.9381 5.55664C22.9341 5.55664 22.1201 6.37058 22.1201 7.37462C22.1201 8.37866 22.9341 9.19259 23.9381 9.19259Z" fill="#FFF0DF"/>
</svg>
