<svg width="125" height="60" viewBox="0 0 125 60" fill="none" xmlns="http://www.w3.org/2000/svg">
<path d="M3 14.8371C11.1893 9.26141 26.9407 1.45542 24.4316 14.8371M24.4316 14.8371C22.1665 18.3219 15.4408 25.3961 6.65906 25.8143C-4.31811 26.337 17.6362 12.2235 24.4316 14.8371ZM24.4316 14.8371C27.5679 17.2765 33.2133 24.4552 30.7043 33.6551C27.5679 45.155 -3.27267 46.7232 32.2724 16.928C35.4088 13.7916 42.8058 17.2331 42.7269 14.8371M42.7269 14.8371C42.7269 12.4902 43.2496 7.83263 39.0678 6.99627C34.8861 6.15992 34.1891 11.875 34.3633 14.8371C34.3633 17.9734 34.4679 23.9325 39.0678 22.6779C43.6678 21.4234 42.7269 16.928 42.7269 14.8371ZM42.7269 14.8371C47.6056 15.0114 57.4677 13.6871 57.8858 6.99627C58.4086 -1.3673 45.8632 4.90533 47.4314 12.2235C47.9541 15.8825 50.045 27.5915 60.4995 22.1552C62.0676 21.284 65.5176 18.8098 66.7721 15.8825M50.045 27.9051C45.5147 29.1248 36.4542 34.0732 36.4542 44.1095M36.4542 44.1095C36.4542 54.1458 42.0299 57.3518 44.8178 57.7003C48.8253 58.0488 56.7359 56.5503 56.3177 47.7686C55.8995 38.9868 42.9011 41.6701 36.4542 44.1095ZM36.4542 44.1095C34.3633 45.5034 29.5543 49.5458 27.0452 54.564M56.8404 33.1323C59.9767 36.0944 71.6045 33.1323 73.6954 23.2006C75.6992 13.6827 83.4992 15.8825 84.5447 16.4052M56.8404 33.1323C59.3495 22.6779 67.2948 26.8597 66.7721 33.1323C67.2948 39.9277 66.7721 45.155 60.4995 45.155C56.2349 45.155 56.3177 37.4884 56.8404 33.1323ZM74.613 14.3143C72.8705 26.1627 71.9993 47.664 82.4538 38.8823M80.8856 22.1552C79.6659 26.337 78.4811 34.2823 83.4992 32.6096C88.5174 30.9369 88.7265 23.8976 88.2037 20.587L90.8173 33.1323" stroke="#FFF0DF" stroke-width="4.35313" stroke-linecap="round"/>
<path d="M97.6125 14.3143C94.6504 15.0113 90.5034 18.4961 97.6125 26.8596C104.721 35.2232 97.0898 38.3595 92.3853 38.8823M107.021 7.51892C103.885 8.73861 99.1806 13.3734 105.453 22.1551C111.726 30.9369 105.976 35.2232 102.317 36.2686" stroke="#FFF0DF" stroke-width="4.35313" stroke-linecap="round"/>
<path d="M119.567 19.5416C121.658 12.7462 110.995 4.17347 110.158 20.0642M119.567 19.5416C115.908 35.746 110.507 26.5111 110.158 20.0642M119.567 19.5416C117.476 22.4688 112.423 21.1097 110.158 20.0642M119.567 19.5416C122.494 12.8507 122.181 10.8295 121.658 10.6553" stroke="#FFF0DF" stroke-width="4.35313" stroke-linecap="round"/>
<path d="M66.321 21.2538C65.2459 21.7914 64.8101 23.0988 65.3477 24.174C65.8852 25.2492 67.1926 25.685 68.2678 25.1474L66.321 21.2538ZM76.7891 17.9734C76.7891 17.7504 76.7697 17.0114 76.184 16.3696C75.4527 15.5683 74.5077 15.5868 74.0517 15.676C73.6359 15.7574 73.3216 15.935 73.1808 16.019C73.0073 16.1224 72.851 16.2364 72.7263 16.3328C72.2809 16.6769 71.6457 17.271 71.0656 17.793C69.7718 18.9575 68.1283 20.3502 66.321 21.2538L68.2678 25.1474C70.6423 23.9601 72.6579 22.2165 73.9777 21.0287C74.7045 20.3746 75.1146 19.9886 75.388 19.7773C75.443 19.7349 75.446 19.7365 75.4103 19.7578C75.4074 19.7596 75.2094 19.8852 74.8875 19.9481C74.5255 20.019 73.6519 20.0528 72.9686 19.3041C72.4309 18.7148 72.436 18.0657 72.436 17.9734H76.7891Z" fill="#FFF0DF"/>
</svg>
