<svg width="174" height="84" viewBox="0 0 174 84" fill="none" xmlns="http://www.w3.org/2000/svg">
<path d="M4 20.5862C15.4817 12.7688 37.5657 1.82451 34.0479 20.5862M34.0479 20.5862C30.8721 25.472 21.4425 35.3903 9.13014 35.9766C-6.26027 36.7094 24.5205 16.9218 34.0479 20.5862ZM34.0479 20.5862C38.4452 24.0062 46.3603 34.0711 42.8425 46.9697C38.4452 63.093 -4.79452 65.2916 45.0411 23.5177C49.4383 19.1203 59.8093 23.9454 59.6986 20.5862M59.6986 20.5862C59.6986 17.2956 60.4315 10.7656 54.5685 9.593C48.7055 8.4204 47.7283 16.4332 47.9726 20.5862C47.9726 24.9833 48.1192 33.3382 54.5685 31.5793C61.0178 29.8204 59.6986 23.5176 59.6986 20.5862ZM59.6986 20.5862C66.5388 20.8304 80.3657 18.9738 80.952 9.593C81.6849 -2.13304 64.0959 6.66142 66.2945 16.9217C67.0274 22.0519 69.9589 38.4683 84.6164 30.8464C86.8151 29.6249 91.652 26.156 93.4109 22.0519M69.9589 38.908C63.6073 40.618 50.9041 47.5559 50.9041 61.6272M50.9041 61.6272C50.9041 75.6984 58.7215 80.1934 62.6301 80.682C68.2488 81.1706 79.3397 79.0696 78.7534 66.7573C78.1671 54.445 59.9429 58.2071 50.9041 61.6272ZM50.9041 61.6272C47.9726 63.5815 41.2301 69.2491 37.7123 76.2847M79.4863 46.2368C83.8835 50.3897 100.186 46.2368 103.118 32.3121C105.927 18.9676 116.863 22.0519 118.329 22.7847M79.4863 46.2368C83.0041 31.5792 94.1438 37.4423 93.4109 46.2368C94.1438 55.7642 93.4109 63.0929 84.6164 63.0929C78.6373 63.0929 78.7534 52.3441 79.4863 46.2368ZM104.404 19.8532C101.961 36.4651 100.74 66.6107 115.397 54.2984M113.199 30.8464C111.489 36.7094 109.827 47.8491 116.863 45.5039C123.899 43.1587 124.192 33.2893 123.459 28.6477L127.123 46.2368" stroke="#FFF0DF" stroke-width="6.10325" stroke-linecap="round"/>
<path d="M136.651 19.8532C132.498 20.8304 126.683 25.7162 136.651 37.4422C146.618 49.1683 135.918 53.5655 129.322 54.2984M149.842 10.3258C145.445 12.0359 138.849 18.534 147.644 30.8463C156.438 43.1587 148.377 49.1683 143.246 50.634" stroke="#FFF0DF" stroke-width="6.10325" stroke-linecap="round"/>
<path d="M167.432 27.182C170.363 17.6546 155.412 5.63532 154.24 27.9148M167.432 27.182C162.301 49.9012 154.728 36.9535 154.24 27.9148M167.432 27.182C164.5 31.2861 157.416 29.3805 154.24 27.9148M167.432 27.182C171.536 17.8011 171.096 14.9673 170.363 14.7231" stroke="#FFF0DF" stroke-width="6.10325" stroke-linecap="round"/>
<path d="M92.7791 29.5826C91.2716 30.3364 90.6606 32.1694 91.4143 33.6768C92.1681 35.1843 94.0011 35.7953 95.5085 35.0416L92.7791 29.5826ZM107.456 24.9833C107.456 24.6707 107.429 23.6346 106.607 22.7348C105.582 21.6113 104.257 21.6372 103.618 21.7623C103.035 21.8764 102.594 22.1255 102.397 22.2432C102.153 22.3882 101.934 22.548 101.759 22.6831C101.135 23.1656 100.244 23.9986 99.4311 24.7305C97.6172 26.3631 95.313 28.3157 92.7791 29.5826L95.5085 35.0416C98.8376 33.377 101.664 30.9324 103.514 29.267C104.533 28.3499 105.108 27.8087 105.491 27.5125C105.568 27.453 105.573 27.4554 105.523 27.4852C105.518 27.4876 105.241 27.6637 104.79 27.752C104.282 27.8513 103.057 27.8988 102.099 26.849C101.345 26.0229 101.352 25.1128 101.352 24.9833H107.456Z" fill="#FFF0DF"/>
</svg>
