<svg width="56" height="55" viewBox="0 0 56 55" fill="none" xmlns="http://www.w3.org/2000/svg">
<rect x="8.54541" y="12.5137" width="40.5604" height="31.7906" fill="#FFF0DF"/>
<path d="M28.1445 0.455078C13.0808 0.455078 0.87207 12.6639 0.87207 27.7275C0.87207 42.7912 13.0808 55 28.1445 55C43.2082 55 55.417 42.7912 55.417 27.7275C55.417 12.6639 43.2082 0.455078 28.1445 0.455078ZM46.0921 37.5108C46.0921 39.7971 44.2353 41.6539 41.9491 41.6539H13.9048C11.6186 41.6539 9.76174 39.7971 9.76174 37.5108V17.9443C9.76174 15.658 11.6186 13.8012 13.9048 13.8012H41.9491C42.9413 13.8012 43.8987 14.1551 44.6473 14.805C45.5641 15.5942 46.0864 16.7373 46.0864 17.9443V37.5108H46.0921Z" fill="#AC5C39"/>
<path d="M13.2437 19.0116V37.5105C13.2437 37.8761 13.5396 38.172 13.9052 38.172H41.9494C42.315 38.172 42.6109 37.8761 42.6109 37.5105V18.9652L27.9302 29.8974L13.2437 19.0116Z" fill="#AC5C39"/>
<path d="M39.042 17.2819H16.7598L27.9241 25.5564L39.042 17.2819Z" fill="#AC5C39"/>
</svg>
