<svg width="31" height="31" viewBox="0 0 31 31" fill="none" xmlns="http://www.w3.org/2000/svg">
<path d="M15.2502 0.312744C6.82692 0.312744 0 7.13966 0 15.563C0 23.9863 6.82692 30.8132 15.2502 30.8132C23.6736 30.8132 30.5005 23.9863 30.5005 15.563C30.5005 7.13966 23.6736 0.312744 15.2502 0.312744ZM22.2426 22.3088C21.9701 22.7566 21.3828 22.8993 20.935 22.6235C17.3528 20.4333 12.8459 19.9401 7.53751 21.1537C7.02485 21.2705 6.51542 20.9492 6.39861 20.4398C6.2818 19.9272 6.59979 19.4177 7.11245 19.3009C12.9205 17.9738 17.9044 18.5449 21.9247 21.0012C22.3724 21.2737 22.5152 21.861 22.2394 22.3088H22.2426ZM24.1084 18.1555C23.7644 18.7136 23.0311 18.8921 22.473 18.5481C18.3749 16.0302 12.1256 15.3002 7.27793 16.77C6.64846 16.9615 5.98653 16.6045 5.79509 15.9783C5.6069 15.3488 5.96058 14.6869 6.58681 14.4955C12.1256 12.8147 19.0109 13.6291 23.719 16.5202C24.2771 16.8641 24.4523 17.5974 24.1116 18.1555H24.1084ZM24.2706 13.8303C19.3548 10.91 11.2462 10.644 6.55436 12.0684C5.80158 12.2955 5.00338 11.8705 4.77625 11.1177C4.54912 10.3649 4.97417 9.56672 5.72695 9.33959C11.1132 7.70425 20.0687 8.01899 25.7275 11.3805C26.4056 11.7829 26.6263 12.659 26.2272 13.3339C25.8248 14.012 24.9488 14.2359 24.2738 13.8335L24.2706 13.8303Z" fill="#FFF0DF"/>
</svg>
