<svg width="35" height="25" viewBox="0 0 35 25" fill="none" xmlns="http://www.w3.org/2000/svg">
<path d="M33.7837 4.20859C33.3909 2.74005 32.2275 1.58266 30.7477 1.18801C28.0701 0.47461 17.3371 0.474609 17.3371 0.474609C17.3371 0.474609 6.60401 0.47461 3.92647 1.18801C2.45039 1.58266 1.28707 2.73625 0.890402 4.20859C0.17334 6.87247 0.17334 12.4279 0.17334 12.4279C0.17334 12.4279 0.17334 17.9834 0.890402 20.6472C1.28326 22.1158 2.44658 23.2732 3.92647 23.6678C6.60401 24.3812 17.3371 24.3812 17.3371 24.3812C17.3371 24.3812 28.0701 24.3812 30.7477 23.6678C32.2237 23.2732 33.3871 22.1196 33.7837 20.6472C34.5008 17.9834 34.5008 12.4279 34.5008 12.4279C34.5008 12.4279 34.5008 6.87247 33.7837 4.20859ZM13.9043 17.5508V7.30507L22.8218 12.4279L13.9043 17.5508Z" fill="#FFF0DF"/>
</svg>
